<mxfile host="app.diagrams.net" modified="2021-11-30T06:18:53.007Z" agent="5.0 (Windows NT 10.0; WOW64) AppleWebKit/537.36 (KHTML, like Gecko) Chrome/81.0.3992.0 Safari/537.36" etag="jXnhfLTeYnPDuLwuGN4_" version="15.8.7" type="github">
  <diagram id="Ok38BHstDtxB_c2n2Dbi" name="第 1 页">
    <mxGraphModel dx="3555" dy="1783" grid="1" gridSize="10" guides="1" tooltips="1" connect="1" arrows="1" fold="1" page="1" pageScale="1" pageWidth="1169" pageHeight="827" math="0" shadow="0">
      <root>
        <mxCell id="0" />
        <mxCell id="1" parent="0" />
        <mxCell id="kmMy4QXGZAho_87WmBlX-2" value="" style="rounded=0;whiteSpace=wrap;html=1;fontFamily=Helvetica;fillColor=#fff2cc;strokeColor=#d6b656;" parent="1" vertex="1">
          <mxGeometry x="200" y="300" width="200" height="60" as="geometry" />
        </mxCell>
        <mxCell id="kmMy4QXGZAho_87WmBlX-3" value="平面设计接单" style="text;resizable=0;autosize=1;align=center;verticalAlign=middle;points=[];rounded=0;fontFamily=Helvetica;fontSize=25;html=1;" parent="1" vertex="1">
          <mxGeometry x="215" y="310" width="170" height="40" as="geometry" />
        </mxCell>
        <mxCell id="kmMy4QXGZAho_87WmBlX-7" value="" style="rounded=0;whiteSpace=wrap;html=1;fontFamily=Helvetica;fillColor=#dae8fc;strokeColor=#6c8ebf;" parent="1" vertex="1">
          <mxGeometry x="485" y="300" width="155" height="60" as="geometry" />
        </mxCell>
        <mxCell id="kmMy4QXGZAho_87WmBlX-8" value="展示作品" style="text;html=1;resizable=0;autosize=1;align=center;verticalAlign=middle;points=[];fillColor=none;strokeColor=none;rounded=0;fontFamily=Helvetica;fontSize=25;" parent="1" vertex="1">
          <mxGeometry x="500" y="310" width="120" height="40" as="geometry" />
        </mxCell>
        <mxCell id="kmMy4QXGZAho_87WmBlX-11" value="" style="rounded=0;whiteSpace=wrap;html=1;fontFamily=Helvetica;fillColor=#dae8fc;strokeColor=#6c8ebf;" parent="1" vertex="1">
          <mxGeometry x="720" y="300" width="160" height="60" as="geometry" />
        </mxCell>
        <mxCell id="kmMy4QXGZAho_87WmBlX-12" value="原创作品" style="text;resizable=0;autosize=1;align=center;verticalAlign=middle;points=[];fillColor=none;strokeColor=none;rounded=0;fontFamily=Helvetica;fontSize=30;html=1;" parent="1" vertex="1">
          <mxGeometry x="730" y="310" width="140" height="40" as="geometry" />
        </mxCell>
        <mxCell id="kmMy4QXGZAho_87WmBlX-28" value="" style="rounded=0;whiteSpace=wrap;html=1;fontFamily=Helvetica;fillColor=#dae8fc;strokeColor=#6c8ebf;" parent="1" vertex="1">
          <mxGeometry x="960" y="540" width="160" height="60" as="geometry" />
        </mxCell>
        <mxCell id="kmMy4QXGZAho_87WmBlX-29" value="图标插画" style="text;resizable=0;autosize=1;align=center;verticalAlign=middle;points=[];fillColor=none;strokeColor=none;rounded=0;fontFamily=Helvetica;fontSize=30;html=1;" parent="1" vertex="1">
          <mxGeometry x="970" y="550" width="140" height="40" as="geometry" />
        </mxCell>
        <mxCell id="kmMy4QXGZAho_87WmBlX-37" value="" style="rounded=0;whiteSpace=wrap;html=1;fontFamily=Helvetica;fillColor=#dae8fc;strokeColor=#6c8ebf;" parent="1" vertex="1">
          <mxGeometry x="960" y="60" width="160" height="60" as="geometry" />
        </mxCell>
        <mxCell id="kmMy4QXGZAho_87WmBlX-38" value="字体设计" style="text;resizable=0;autosize=1;align=center;verticalAlign=middle;points=[];fillColor=none;strokeColor=none;rounded=0;fontFamily=Helvetica;fontSize=30;html=1;" parent="1" vertex="1">
          <mxGeometry x="970" y="70" width="140" height="40" as="geometry" />
        </mxCell>
        <mxCell id="kmMy4QXGZAho_87WmBlX-39" value="" style="rounded=0;whiteSpace=wrap;html=1;fontFamily=Helvetica;fillColor=#dae8fc;strokeColor=#6c8ebf;" parent="1" vertex="1">
          <mxGeometry x="960" y="300" width="160" height="60" as="geometry" />
        </mxCell>
        <mxCell id="kmMy4QXGZAho_87WmBlX-47" style="edgeStyle=orthogonalEdgeStyle;rounded=0;orthogonalLoop=1;jettySize=auto;html=1;entryX=0.5;entryY=1;entryDx=0;entryDy=0;fontFamily=Helvetica;fontSize=25;" parent="1" target="kmMy4QXGZAho_87WmBlX-37" edge="1">
          <mxGeometry relative="1" as="geometry">
            <mxPoint x="1040" y="300" as="sourcePoint" />
          </mxGeometry>
        </mxCell>
        <mxCell id="kmMy4QXGZAho_87WmBlX-48" style="edgeStyle=orthogonalEdgeStyle;rounded=0;orthogonalLoop=1;jettySize=auto;html=1;entryX=0.5;entryY=0;entryDx=0;entryDy=0;fontFamily=Helvetica;fontSize=25;" parent="1" target="kmMy4QXGZAho_87WmBlX-28" edge="1">
          <mxGeometry relative="1" as="geometry">
            <mxPoint x="1040" y="360" as="sourcePoint" />
          </mxGeometry>
        </mxCell>
        <mxCell id="kmMy4QXGZAho_87WmBlX-40" value="版面设计" style="text;resizable=0;autosize=1;align=center;verticalAlign=middle;points=[];fillColor=none;strokeColor=none;rounded=0;fontFamily=Helvetica;fontSize=30;html=1;" parent="1" vertex="1">
          <mxGeometry x="970" y="310" width="140" height="40" as="geometry" />
        </mxCell>
        <mxCell id="kmMy4QXGZAho_87WmBlX-41" value="" style="rounded=0;whiteSpace=wrap;html=1;fontFamily=Helvetica;fillColor=#dae8fc;strokeColor=#6c8ebf;" parent="1" vertex="1">
          <mxGeometry x="1200" y="380" width="160" height="60" as="geometry" />
        </mxCell>
        <mxCell id="kmMy4QXGZAho_87WmBlX-42" value="日本平面" style="text;resizable=0;autosize=1;align=center;verticalAlign=middle;points=[];fillColor=none;strokeColor=none;rounded=0;fontFamily=Helvetica;fontSize=30;html=1;" parent="1" vertex="1">
          <mxGeometry x="1210" y="390" width="140" height="40" as="geometry" />
        </mxCell>
        <mxCell id="kmMy4QXGZAho_87WmBlX-43" value="" style="rounded=0;whiteSpace=wrap;html=1;fontFamily=Helvetica;fillColor=#dae8fc;strokeColor=#6c8ebf;" parent="1" vertex="1">
          <mxGeometry x="1200" y="300" width="160" height="60" as="geometry" />
        </mxCell>
        <mxCell id="kmMy4QXGZAho_87WmBlX-44" value="研习设" style="text;resizable=0;autosize=1;align=center;verticalAlign=middle;points=[];fillColor=none;strokeColor=none;rounded=0;fontFamily=Helvetica;fontSize=30;html=1;" parent="1" vertex="1">
          <mxGeometry x="1225" y="310" width="110" height="40" as="geometry" />
        </mxCell>
        <mxCell id="kmMy4QXGZAho_87WmBlX-45" value="" style="rounded=0;whiteSpace=wrap;html=1;fontFamily=Helvetica;fillColor=#dae8fc;strokeColor=#6c8ebf;" parent="1" vertex="1">
          <mxGeometry x="1200" y="220" width="160" height="60" as="geometry" />
        </mxCell>
        <mxCell id="kmMy4QXGZAho_87WmBlX-46" value="已购书本" style="text;resizable=0;autosize=1;align=center;verticalAlign=middle;points=[];fillColor=none;strokeColor=none;rounded=0;fontFamily=Helvetica;fontSize=30;html=1;" parent="1" vertex="1">
          <mxGeometry x="1210" y="230" width="140" height="40" as="geometry" />
        </mxCell>
      </root>
    </mxGraphModel>
  </diagram>
</mxfile>
